<svg xmlns="http://www.w3.org/2000/svg" width="146" height="40" viewBox="0 0 146 40" fill="none" id="Logo"> <g id="logomark"> <path fill-rule="evenodd" clip-rule="evenodd" d="M5.63962 2.59366V0.179871H0.104065V22.4212C0.104065 32.0386 7.92635 39.8352 17.5756 39.8352C27.2249 39.8352 35.0473 32.0386 35.0473 22.4212V0.179871H29.5117V2.59366H20.1704V0.179871H14.6349V2.59366H5.63962ZM14.6348 33.954C9.5136 32.6607 5.71185 28.0678 5.64062 22.5782C6.2306 22.7207 6.80997 22.9087 7.37335 23.1413C8.80052 23.7305 10.0973 24.5941 11.1896 25.6828C12.2819 26.7715 13.1483 28.0639 13.7395 29.4863C14.3282 30.9029 14.6324 32.4208 14.6348 33.954ZM15.1038 21.7815C15.9706 22.6454 16.7407 23.5966 17.4026 24.618C18.0646 23.5966 18.8347 22.6454 19.7015 21.7815C20.5683 20.9175 21.5227 20.15 22.5475 19.4902C21.5227 18.8305 20.5683 18.0629 19.7015 17.1989C18.8347 16.335 18.0646 15.3838 17.4026 14.3624C16.7407 15.3838 15.9706 16.335 15.1038 17.1989C14.237 18.0629 13.2826 18.8305 12.2578 19.4902C13.2826 20.15 14.237 20.9175 15.1038 21.7815ZM29.5114 22.5001C29.4746 28.1473 25.4901 32.8605 20.1704 34.0359V33.973C20.1704 32.4333 20.4747 30.9088 21.0658 29.4863C21.657 28.0639 22.5234 26.7715 23.6157 25.6828C24.708 24.5941 26.0048 23.7305 27.4319 23.1413C28.1053 22.8633 28.8015 22.6489 29.5114 22.5001ZM14.2153 8.1109C14.086 8.58042 13.9272 9.04239 13.7395 9.49407C13.1483 10.9165 12.2819 12.209 11.1896 13.2977C10.0973 14.3864 8.80052 15.2499 7.37335 15.8391C6.80962 16.0719 6.22991 16.26 5.63962 16.4024V8.1109H14.2153ZM29.5117 16.4804V8.1109H20.59C20.7193 8.58042 20.8781 9.04239 21.0658 9.49407C21.657 10.9165 22.5234 12.209 23.6157 13.2977C24.708 14.3864 26.0048 15.2499 27.4319 15.8391C28.1054 16.1172 28.8017 16.3316 29.5117 16.4804Z" fill="#09C382"/> </g> <g id="logotype"> <path d="M44.3127 3.3927V18.1109H53.6287V15.4439H47.385V3.3927H44.3127Z" fill="#124835"/> <path d="M91.2313 7.32416V18.111H94.2046V7.32416H91.2313Z" fill="#124835"/> <path d="M91.2313 3.3927V6.35611H94.2046V3.3927H91.2313Z" fill="#124835"/> <path fill-rule="evenodd" clip-rule="evenodd" d="M95.7857 22.0621V7.32417H98.5608V8.4432C98.8811 8.06713 99.2776 7.76655 99.7499 7.54148C100.371 7.23855 101.078 7.0871 101.871 7.0871C102.902 7.0871 103.833 7.33734 104.666 7.83782C105.498 8.3383 106.159 9.01658 106.648 9.87268C107.137 10.7156 107.381 11.6639 107.381 12.7175C107.381 13.758 107.137 14.7063 106.648 15.5624C106.172 16.4185 105.518 17.0968 104.685 17.5973C103.853 18.0978 102.908 18.348 101.851 18.348C101.111 18.348 100.424 18.2163 99.7896 17.9529C99.399 17.7789 99.0555 17.5555 98.759 17.2825V22.0621H95.7857ZM101.494 15.681C102.049 15.681 102.538 15.5558 102.961 15.3056C103.384 15.0553 103.714 14.7063 103.952 14.2585C104.19 13.8107 104.309 13.2971 104.309 12.7175C104.309 12.138 104.19 11.631 103.952 11.1963C103.714 10.7485 103.384 10.3995 102.961 10.1493C102.538 9.88586 102.049 9.75417 101.494 9.75417C100.966 9.75417 100.49 9.87927 100.067 10.1295C99.6575 10.3798 99.3337 10.7288 99.096 11.1766C98.8711 11.6244 98.759 12.138 98.759 12.7175C98.759 13.2971 98.8711 13.8107 99.096 14.2585C99.3337 14.7063 99.6575 15.0553 100.067 15.3056C100.49 15.5558 100.966 15.681 101.494 15.681Z" fill="#124835"/> <path d="M109.658 17.5183C110.543 18.0714 111.58 18.348 112.77 18.348C113.615 18.348 114.349 18.2097 114.97 17.9331C115.591 17.6434 116.073 17.2483 116.417 16.7478C116.774 16.2473 116.952 15.6612 116.952 14.9895C116.952 14.2124 116.714 13.5605 116.238 13.0336C115.763 12.4936 115.076 12.092 114.177 11.8285L112.452 11.3149C112.188 11.2359 111.964 11.1502 111.779 11.0581C111.607 10.9659 111.481 10.8605 111.402 10.742C111.323 10.6234 111.283 10.4917 111.283 10.3468C111.283 10.0702 111.389 9.85293 111.6 9.69489C111.825 9.53682 112.129 9.45782 112.512 9.45782C113.041 9.45782 113.51 9.5961 113.919 9.87268C114.342 10.1361 114.633 10.4917 114.792 10.9395L116.992 9.9122C116.661 9.01658 116.093 8.32513 115.287 7.83782C114.494 7.33734 113.569 7.0871 112.512 7.0871C111.706 7.0871 110.992 7.23196 110.371 7.52172C109.75 7.7983 109.268 8.18686 108.924 8.68734C108.581 9.18782 108.409 9.77392 108.409 10.4456C108.409 11.2095 108.647 11.8746 109.123 12.441C109.598 12.9941 110.279 13.3959 111.164 13.6461L113.007 14.1598C113.245 14.2256 113.444 14.3046 113.602 14.3968C113.761 14.489 113.88 14.5944 113.959 14.7129C114.038 14.8183 114.078 14.95 114.078 15.108C114.078 15.411 113.965 15.648 113.741 15.8192C113.516 15.9905 113.193 16.0761 112.77 16.0761C112.188 16.0761 111.66 15.9114 111.184 15.5822C110.708 15.2529 110.332 14.7985 110.054 14.219L107.874 15.2463C108.191 16.1946 108.786 16.9519 109.658 17.5183Z" fill="#124835"/> <path d="M129.405 18.111V7.32417H132.18V8.62724C132.384 8.23296 132.668 7.91717 133.033 7.67979C133.641 7.28465 134.367 7.0871 135.213 7.0871C136.112 7.0871 136.898 7.31758 137.572 7.77855C137.973 8.03975 138.286 8.35475 138.511 8.72351C138.798 8.30624 139.139 7.97148 139.534 7.71927C140.195 7.29782 140.968 7.0871 141.854 7.0871C142.633 7.0871 143.32 7.2583 143.915 7.60075C144.523 7.9432 144.998 8.42392 145.342 9.04292C145.685 9.64879 145.857 10.36 145.857 11.1766V18.111H142.884V11.8088C142.884 11.3873 142.805 11.0251 142.646 10.7222C142.501 10.4193 142.289 10.1822 142.012 10.011C141.734 9.83975 141.398 9.75417 141.001 9.75417C140.618 9.75417 140.281 9.83975 139.99 10.011C139.713 10.1822 139.495 10.4193 139.336 10.7222C139.191 11.0251 139.118 11.3873 139.118 11.8088V18.111H136.145V11.8088C136.145 11.3873 136.065 11.0251 135.907 10.7222C135.762 10.4193 135.55 10.1822 135.273 10.011C134.995 9.83975 134.658 9.75417 134.262 9.75417C133.879 9.75417 133.542 9.83975 133.251 10.011C132.973 10.1822 132.755 10.4193 132.597 10.7222C132.451 11.0251 132.379 11.3873 132.379 11.8088V18.111H129.405Z" fill="#124835"/> <path d="M122.019 18.348C121.147 18.348 120.401 18.1636 119.78 17.7948C119.172 17.4129 118.709 16.8861 118.392 16.2144C118.075 15.5426 117.916 14.759 117.916 13.8634V7.32416H120.89V13.6263C120.89 14.0346 120.969 14.3968 121.127 14.7129C121.299 15.0158 121.537 15.2529 121.841 15.4241C122.145 15.5953 122.488 15.681 122.872 15.681C123.268 15.681 123.612 15.5953 123.902 15.4241C124.206 15.2529 124.438 15.0158 124.596 14.7129C124.768 14.3968 124.854 14.0346 124.854 13.6263V7.32416H127.827V18.111H125.052V16.7983C124.8 17.2719 124.443 17.637 123.982 17.8936C123.427 18.1965 122.773 18.348 122.019 18.348Z" fill="#124835"/> <path fill-rule="evenodd" clip-rule="evenodd" d="M84.2863 18.348C83.2162 18.348 82.2382 18.1044 81.3528 17.617C80.4806 17.1297 79.7804 16.4646 79.2517 15.6217C78.7366 14.7656 78.4788 13.7975 78.4788 12.7175C78.4788 11.6244 78.7366 10.6563 79.2517 9.81341C79.7804 8.97051 80.4806 8.30537 81.3528 7.81806C82.2382 7.33075 83.2162 7.0871 84.2863 7.0871C85.3567 7.0871 86.3282 7.33075 87.2001 7.81806C88.0723 8.30537 88.7663 8.97051 89.2814 9.81341C89.8101 10.6563 90.0744 11.6244 90.0744 12.7175C90.0744 13.7975 89.8101 14.7656 89.2814 15.6217C88.7663 16.4646 88.0723 17.1297 87.2001 17.617C86.3282 18.1044 85.3567 18.348 84.2863 18.348ZM84.2863 15.681C84.8281 15.681 85.2972 15.5558 85.6937 15.3056C86.1033 15.0553 86.4206 14.7063 86.6451 14.2585C86.8832 13.8107 87.0022 13.2971 87.0022 12.7175C87.0022 12.138 86.8832 11.631 86.6451 11.1963C86.4206 10.7485 86.1033 10.3995 85.6937 10.1493C85.2972 9.88586 84.8281 9.75417 84.2863 9.75417C83.7445 9.75417 83.2688 9.88586 82.8592 10.1493C82.4495 10.3995 82.1261 10.7485 81.888 11.1963C81.6635 11.631 81.5511 12.138 81.5511 12.7175C81.5511 13.2971 81.6635 13.8107 81.888 14.2585C82.1261 14.7063 82.4495 15.0553 82.8592 15.3056C83.2688 15.5558 83.7445 15.681 84.2863 15.681Z" fill="#124835"/> <path fill-rule="evenodd" clip-rule="evenodd" d="M69.6496 22.0424C70.363 22.319 71.1362 22.4573 71.9687 22.4573C73.0124 22.4573 73.931 22.2465 74.7236 21.8251C75.5297 21.4036 76.1642 20.8175 76.6268 20.0668C77.089 19.3292 77.3205 18.4863 77.3205 17.538V7.32417H74.5454V8.45713C74.2188 8.07527 73.8487 7.77665 73.4352 7.56124C72.854 7.24513 72.1735 7.0871 71.3936 7.0871C70.4028 7.0871 69.5174 7.31099 68.7376 7.75879C67.9581 8.20661 67.3437 8.82561 66.8943 9.61586C66.4449 10.3929 66.2203 11.2885 66.2203 12.3027C66.2203 13.3168 66.4449 14.2256 66.8943 15.029C67.3437 15.8192 67.9647 16.4449 68.7573 16.9058C69.5503 17.3536 70.4488 17.5775 71.4532 17.5775C72.233 17.5775 72.9135 17.4326 73.4947 17.1429C73.8099 16.9787 74.094 16.77 74.3472 16.5168V17.538C74.3472 17.999 74.2479 18.4007 74.05 18.7431C73.8649 19.0856 73.594 19.3424 73.2373 19.5136C72.8803 19.698 72.4575 19.7902 71.9687 19.7902C71.3476 19.7902 70.8124 19.6453 70.363 19.3556C69.9136 19.0658 69.6164 18.6707 69.4711 18.1702L66.7158 19.1383C66.9406 19.81 67.3039 20.3895 67.8059 20.8768C68.3214 21.3773 68.9359 21.7658 69.6496 22.0424ZM73.1778 14.5746C72.8076 14.7853 72.3717 14.8907 71.8694 14.8907C71.3674 14.8907 70.9179 14.7853 70.5215 14.5746C70.1385 14.3507 69.8344 14.0478 69.6098 13.6659C69.3984 13.2839 69.2926 12.8427 69.2926 12.3422C69.2926 11.8285 69.3984 11.3807 69.6098 10.9988C69.8344 10.6036 70.1385 10.3008 70.5215 10.09C70.9179 9.8661 71.3674 9.75417 71.8694 9.75417C72.3586 9.75417 72.7879 9.8661 73.1578 10.09C73.5279 10.3008 73.8186 10.6036 74.03 10.9988C74.2413 11.3807 74.3472 11.8285 74.3472 12.3422C74.3472 12.8559 74.2413 13.3036 74.03 13.6856C73.8317 14.0675 73.5477 14.3639 73.1778 14.5746Z" fill="#124835"/> <path fill-rule="evenodd" clip-rule="evenodd" d="M59.7116 18.348C58.6411 18.348 57.6634 18.1044 56.7781 17.617C55.9059 17.1297 55.2056 16.4646 54.677 15.6217C54.1615 14.7656 53.9037 13.7975 53.9037 12.7175C53.9037 11.6244 54.1615 10.6563 54.677 9.81341C55.2056 8.97051 55.9059 8.30537 56.7781 7.81806C57.6634 7.33075 58.6411 7.0871 59.7116 7.0871C60.782 7.0871 61.7532 7.33075 62.6253 7.81806C63.4975 8.30537 64.1912 8.97051 64.7067 9.81341C65.2354 10.6563 65.4993 11.6244 65.4993 12.7175C65.4993 13.7975 65.2354 14.7656 64.7067 15.6217C64.1912 16.4646 63.4975 17.1297 62.6253 17.617C61.7532 18.1044 60.782 18.348 59.7116 18.348ZM59.7116 15.681C60.2534 15.681 60.7225 15.5558 61.119 15.3056C61.5286 15.0553 61.8459 14.7063 62.0704 14.2585C62.3081 13.8107 62.4271 13.2971 62.4271 12.7175C62.4271 12.138 62.3081 11.631 62.0704 11.1963C61.8459 10.7485 61.5286 10.3995 61.119 10.1493C60.7225 9.88586 60.2534 9.75417 59.7116 9.75417C59.1698 9.75417 58.6941 9.88586 58.2844 10.1493C57.8748 10.3995 57.551 10.7485 57.3133 11.1963C57.0884 11.631 56.9763 12.138 56.9763 12.7175C56.9763 13.2971 57.0884 13.8107 57.3133 14.2585C57.551 14.7063 57.8748 15.0553 58.2844 15.3056C58.6941 15.5558 59.1698 15.681 59.7116 15.681Z" fill="#124835"/> <path d="M46.5086 35.3497C47.1729 35.7138 47.9423 35.8959 48.817 35.8959C49.7026 35.8959 50.4721 35.7138 51.1253 35.3497C51.7895 34.9855 52.3044 34.489 52.6697 33.8599C53.035 33.2199 53.2177 32.4916 53.2177 31.6751V23.3661H51.8892V31.6751C51.8892 32.2709 51.7563 32.7951 51.4906 33.2475C51.236 33.6888 50.8762 34.0364 50.4112 34.2902C49.9573 34.5331 49.4259 34.6545 48.817 34.6545C48.208 34.6545 47.6711 34.5331 47.2061 34.2902C46.7522 34.0364 46.3924 33.6888 46.1267 33.2475C45.872 32.7951 45.7447 32.2709 45.7447 31.6751V23.3661H44.4162V31.6751C44.4162 32.4916 44.5989 33.2199 44.9642 33.8599C45.3296 34.489 45.8444 34.9855 46.5086 35.3497Z" fill="#124835"/> <path d="M64.4344 26.8254V35.6972H65.6799V26.8254H64.4344Z" fill="#124835"/> <path d="M64.4344 23.3661V25.1868H65.6799V23.3661H64.4344Z" fill="#124835"/> <path d="M98.4327 35.6972V26.8254H99.6782V35.6972H98.4327Z" fill="#124835"/> <path d="M98.4327 25.1868V23.3661H99.6782V25.1868H98.4327Z" fill="#124835"/> <path d="M103.29 35.1014C103.722 35.5648 104.336 35.7965 105.133 35.7965C105.233 35.7965 105.366 35.7855 105.532 35.7634C105.698 35.7524 105.848 35.7303 105.98 35.6972V34.5883C105.892 34.5993 105.787 34.6103 105.665 34.6214C105.543 34.6324 105.438 34.6379 105.349 34.6379C104.984 34.6379 104.691 34.5717 104.469 34.4392C104.259 34.3067 104.109 34.1302 104.021 33.9095C103.932 33.6778 103.888 33.4129 103.888 33.115V28.0667H105.848V26.8254H103.888V24.7729H102.642V25.5178C102.642 25.893 102.532 26.2074 102.31 26.4612C102.089 26.704 101.79 26.8254 101.414 26.8254H100.998V28.0667H102.642V33.115C102.642 33.9757 102.858 34.6379 103.29 35.1014Z" fill="#124835"/> <path d="M107.304 39.289C107.492 39.3221 107.675 39.3386 107.852 39.3386C108.439 39.3386 108.937 39.2172 109.347 38.9745C109.756 38.7428 110.094 38.4338 110.36 38.0476C110.637 37.6614 110.863 37.2531 111.041 36.8228L115.109 26.8254H113.731L110.832 34.1488L107.919 26.8254H106.573L110.133 35.7038L109.812 36.4586C109.535 37.0986 109.253 37.529 108.965 37.7497C108.677 37.9814 108.262 38.0972 107.719 38.0972C107.542 38.0972 107.365 38.0807 107.188 38.0476C107.022 38.0255 106.883 38.009 106.773 37.9979V39.1566C106.95 39.2228 107.127 39.2669 107.304 39.289Z" fill="#124835"/> <path d="M91.3285 35.2504C91.9707 35.6807 92.718 35.8959 93.5704 35.8959C94.1904 35.8959 94.7384 35.791 95.2145 35.5814C95.6906 35.3607 96.0614 35.0573 96.3271 34.671C96.6039 34.2847 96.7423 33.8488 96.7423 33.3633C96.7423 32.7675 96.5375 32.2488 96.1279 31.8075C95.7293 31.3661 95.1702 31.0406 94.4506 30.8309L92.9726 30.4006C92.8176 30.3564 92.6349 30.2902 92.4246 30.2019C92.2253 30.1137 92.0482 29.9813 91.8932 29.8047C91.7382 29.6282 91.6607 29.3909 91.6607 29.093C91.6607 28.7068 91.8101 28.3868 92.1091 28.133C92.408 27.8792 92.8065 27.7523 93.3047 27.7523C93.814 27.7523 94.2735 27.8957 94.6831 28.1826C95.1038 28.4585 95.4249 28.8447 95.6463 29.3413L96.7091 28.8447C96.4545 28.1495 96.0172 27.6088 95.3972 27.2226C94.7883 26.8254 94.1074 26.6268 93.3546 26.6268C92.801 26.6268 92.2973 26.7316 91.8434 26.9413C91.3894 27.1509 91.0296 27.4488 90.7639 27.835C90.4982 28.2213 90.3654 28.6737 90.3654 29.1923C90.3654 29.744 90.548 30.2295 90.9134 30.6488C91.2787 31.0681 91.871 31.3937 92.6903 31.6254L93.969 31.9895C94.1461 32.0337 94.351 32.1054 94.5835 32.2047C94.8159 32.304 95.0208 32.4475 95.1979 32.635C95.375 32.8116 95.4636 33.0544 95.4636 33.3633C95.4636 33.7826 95.2809 34.1247 94.9156 34.3895C94.5502 34.6435 94.1019 34.7704 93.5704 34.7704C93.0169 34.7704 92.5076 34.6104 92.0426 34.2902C91.5887 33.9702 91.2344 33.5399 90.9798 32.9992L89.9336 33.4957C90.2214 34.235 90.6864 34.82 91.3285 35.2504Z" fill="#124835"/> <path d="M85.3685 35.6973V26.8254H86.614V27.7853C86.8126 27.4965 87.0727 27.2593 87.3945 27.0737C87.8263 26.8309 88.3466 26.7095 88.9555 26.7095H89.5201V27.9509H88.7396C88.0975 27.9509 87.5827 28.1495 87.1952 28.5468C86.8077 28.944 86.614 29.5068 86.614 30.2351V35.6973H85.3685Z" fill="#124835"/> <path fill-rule="evenodd" clip-rule="evenodd" d="M77.4433 35.3C78.1186 35.6973 78.8715 35.8959 79.7018 35.8959C80.3107 35.8959 80.8643 35.7966 81.3625 35.5979C81.8717 35.3883 82.309 35.1179 82.6744 34.7869C83.0397 34.4447 83.311 34.075 83.4881 33.6778L82.4253 33.115C82.1485 33.5785 81.7887 33.9647 81.3458 34.2737C80.903 34.5828 80.355 34.7373 79.7018 34.7373C79.1372 34.7373 78.6058 34.5938 78.1076 34.3068C77.6204 34.0199 77.2329 33.6171 76.9451 33.0985C76.7212 32.6706 76.606 32.1851 76.5995 31.6419H83.6043C83.6265 31.4985 83.6431 31.3606 83.6542 31.2282C83.6652 31.0847 83.6708 30.9578 83.6708 30.8475C83.6708 30.3178 83.5767 29.8047 83.3885 29.3081C83.2003 28.8006 82.929 28.3482 82.5747 27.9509C82.2205 27.5426 81.7887 27.2226 81.2794 26.9909C80.7812 26.7481 80.2111 26.6268 79.5689 26.6268C78.7607 26.6268 78.0301 26.8254 77.3769 27.2226C76.7347 27.6199 76.2255 28.1661 75.8491 28.8613C75.4726 29.5454 75.2844 30.3344 75.2844 31.2282C75.2844 32.1219 75.4782 32.9219 75.8657 33.6281C76.2531 34.3344 76.779 34.8917 77.4433 35.3ZM82.3357 30.4833H76.6192C76.6604 30.092 76.7635 29.7389 76.9285 29.424C77.1942 28.9054 77.5595 28.5026 78.0245 28.2157C78.5006 27.9288 79.0154 27.7854 79.5689 27.7854C80.1225 27.7854 80.6207 27.9288 81.0635 28.2157C81.5064 28.4916 81.844 28.8723 82.0765 29.3578C82.2516 29.6988 82.3377 30.074 82.3357 30.4833Z" fill="#124835"/> <path d="M70.1059 35.6972L66.6351 26.8254H68.0301L70.7294 34.0097L73.4439 26.8254H74.8554L71.3514 35.6972H70.1059Z" fill="#124835"/> <path d="M55.4129 35.6973V26.8254H56.6584V27.9243C56.8656 27.6058 57.1313 27.3389 57.4555 27.1233C57.9648 26.7923 58.5516 26.6268 59.2158 26.6268C59.8469 26.6268 60.4115 26.7702 60.9097 27.0571C61.419 27.344 61.8175 27.7413 62.1054 28.2488C62.4043 28.7454 62.5538 29.3081 62.5538 29.9371V35.6973H61.3083V30.4171C61.3083 29.8764 61.2086 29.4185 61.0093 29.0433C60.8211 28.6682 60.5499 28.3813 60.1956 28.1826C59.8524 27.973 59.4538 27.8681 58.9999 27.8681C58.546 27.8681 58.1419 27.973 57.7877 28.1826C57.4334 28.3813 57.1566 28.6737 56.9573 29.0599C56.758 29.435 56.6584 29.8875 56.6584 30.4171V35.6973H55.4129Z" fill="#124835"/> </g> </svg>